<svg width="189" height="145" viewBox="0 0 189 145" fill="none" xmlns="http://www.w3.org/2000/svg">
<path d="M38.8977 43.6942C31.309 30.8954 26.7296 28.737 20.5799 28.583V30.4334C27.7772 31.5138 32.748 37.219 32.748 47.0871C32.748 47.0871 32.748 47.767 32.748 48.9327C32.748 49.5156 32.748 50.2192 32.748 51.0201C32.6931 56.8627 40.8067 58.0474 41.7613 63.0228C42.7158 66.5768 36.5113 67.2875 34.3636 70.6045C33.8863 71.5522 32.6931 72.263 32.8244 73.7912C32.7504 74.7626 32.748 75.6606 32.748 76.4614C32.748 78.8638 32.748 80.3944 32.748 80.3944C32.748 94.8897 26.207 100.441 18.4871 100.441C16.263 100.441 14.3014 100.133 12.7312 99.2065C10.5071 101.673 8.67436 104.296 8.67436 105.838C8.67436 107.227 9.45947 107.997 11.9461 107.997H25.8156C33.9269 107.997 37.7212 111.235 37.7212 117.557C37.7212 125.731 25.1594 138.529 14.3014 138.529C6.45027 138.529 3.30981 133.748 3.30981 129.123C3.30981 123.572 6.18777 120.025 9.72197 118.175V117.251C6.71277 116.327 4.61993 114.32 4.61993 110.311C4.61993 105.068 8.41425 101.213 10.6383 97.9745C7.49788 95.2 5.79641 90.2648 5.79641 82.4012C5.79641 82.4012 5.79641 80.7664 5.79641 78.1957C5.79641 77.338 5.79641 76.3785 5.79641 75.3407C5.7272 69.4199 12.409 67.9983 15.2727 63.7336C15.5113 63.2598 15.2727 62.549 15.034 62.0751C11.9317 58.2843 5.7272 56.3889 5.79641 50.9845C5.79641 50.1268 5.79641 49.3758 5.79641 48.7527C5.79641 47.5064 5.79641 46.7791 5.79641 46.7791C5.79641 31.6678 12.3374 25.9626 20.0573 25.9626H38.8977V43.6942ZM25.8132 118.483H13.385C11.2922 119.717 10.636 121.257 10.636 122.956C10.636 126.041 12.5999 128.661 22.804 128.661C28.8224 128.661 31.309 127.427 31.309 124.345C31.309 120.641 30.2614 118.483 25.8132 118.483ZM23.5891 49.2478C23.5891 38.1454 21.1025 36.449 18.4871 36.449C15.6091 36.449 14.9553 39.8418 14.9553 45.239C14.9553 45.239 14.9553 46.7625 14.9553 49.1531C14.9553 49.9515 14.9553 50.8447 14.9863 51.8114C15.2727 57.5735 22.4317 58.2843 24.5795 62.7859C24.8181 63.2598 24.5795 63.7336 24.3408 64.2075C21.4772 67.7614 15.5113 69.183 14.9648 74.4759C14.9553 75.2744 14.9553 75.9733 14.9553 76.5538C14.9553 77.7147 14.9553 78.39 14.9553 78.39C14.9553 89.4924 17.3106 91.1888 20.0573 91.1888C22.9353 91.1888 23.5891 87.796 23.5891 82.4012C23.5891 82.4012 23.5891 79.6955 23.5891 75.8288C23.5891 75.3455 23.5891 74.8432 23.6082 74.3267C24.3408 69.6568 29.5908 67.7614 32.6931 64.6813C33.409 63.7336 33.409 62.549 32.6931 61.6013C29.5908 58.2843 23.6249 56.6258 23.5891 51.084C23.5891 49.9231 23.5891 49.2478 23.5891 49.2478Z" fill="#F7F4F2" stroke="#363245" stroke-linejoin="bevel"/>
<path d="M54.3996 5.91608C54.3996 5.91608 54.3996 26.2492 54.3996 49.6317C54.3996 50.3188 54.3996 51.0106 54.4044 51.7024C54.8864 56.6258 59.8978 58.5212 63.2387 61.6013C64.6705 62.7859 63.716 64.4444 62.5228 65.3921C59.1819 67.9984 54.4091 70.1307 54.402 74.7674C54.3996 75.4545 54.3996 76.1392 54.3996 76.8216C54.3996 99.3274 54.3996 118.481 54.3996 118.481H45.2407C45.2407 118.481 45.2407 99.3274 45.2407 76.8216C45.2407 76.1392 45.2407 75.4545 45.2431 74.7674C45.3409 69.183 52.9773 67.9984 54.6478 63.2598C54.8864 62.7859 54.4091 62.0752 54.1705 61.6013C51.3069 58.2843 45.5796 56.6258 45.2479 51.7024C45.2407 51.0106 45.2407 50.3188 45.2407 49.6317C45.2407 26.2492 45.2407 5.91608 45.2407 5.91608H54.3996Z" fill="#F7F4F2" stroke="#363245" stroke-linejoin="bevel"/>
<path d="M74.4809 96.7425C74.4809 107.845 77.8839 109.541 81.547 109.541C85.4725 109.541 87.1716 103.682 87.4341 93.814L87.8255 75.772H89.6558L90.0472 94.276C90.3097 108.925 86.1216 120.028 77.3565 120.028C69.3765 120.028 65.3197 115.247 65.3197 101.986C65.3197 101.986 65.3197 90.2933 65.3197 77.5371C65.3197 76.8997 65.3197 76.26 65.3197 75.618C65.1479 70.3676 70.8752 68.2353 74.2161 64.9183C75.1706 63.7336 75.1706 62.3121 73.9774 61.1274C70.8752 58.5212 67.057 56.6258 65.4748 52.8326C65.3412 51.9299 65.3245 51.0888 65.3245 50.3235C65.3245 47.2624 65.3245 45.3907 65.3245 45.3907C65.3245 30.1254 71.3429 24.4202 79.194 24.4202C86.3913 24.4202 90.1856 29.2014 90.1856 42.6162C90.1856 42.6162 90.1856 48.7835 90.1856 54.9531C90.1856 55.5691 90.1856 56.1875 90.1856 56.7964C90.2047 60.4166 91.3979 64.9183 89.7274 66.5768C87.5797 68.4722 82.3297 66.3399 78.9888 67.7614C76.6024 68.7091 74.4547 71.7892 74.4833 74.9238C74.4833 75.4687 74.4833 76.0326 74.4833 76.6059C74.4809 85.2372 74.4809 96.7425 74.4809 96.7425ZM74.4809 43.8506C74.4809 43.8506 74.4809 45.765 74.4809 48.447C74.4809 49.3403 74.4809 50.3188 74.4809 51.3399C74.6933 55.915 79.4661 58.0474 80.4206 62.3121C80.6592 63.2598 79.9433 64.6814 80.4206 64.9183C81.3752 65.6291 83.7615 65.6291 84.0002 64.9183C85.9092 61.3644 82.807 57.3366 82.449 53.2188C82.344 52.1976 82.3321 51.2452 82.3321 50.4278C82.3321 48.7953 82.3321 47.7055 82.3321 47.7055C82.3321 36.449 80.8931 34.9066 78.2753 34.9066C75.1372 34.9066 74.4809 38.297 74.4809 43.8506Z" fill="#F7F4F2" stroke="#363245" stroke-linejoin="bevel"/>
<path d="M108.431 120.025C103.458 120.025 100.843 116.479 100.843 109.077V98.4365C100.843 85.9457 106.339 81.0104 116.674 69.6V41.0738C116.674 36.1386 115.626 34.9066 111.309 34.9066C104.506 34.9066 102.804 38.2994 102.804 43.6966C102.804 50.1742 105.028 55.8795 115.758 68.6783H103.196C100.58 61.2767 99.7952 52.4867 99.7952 45.393C99.7952 35.679 106.205 24.4225 114.45 24.4225C122.038 24.4225 125.833 29.2037 125.833 37.0674V100.289C125.833 108.615 127.141 109.541 128.579 109.541C129.756 109.541 130.672 108.617 130.804 103.528L131.195 76.5443H133.025L133.417 102.912C133.548 112.628 132.24 120.028 126.091 120.028C120.726 120.028 118.371 115.555 119.941 93.66L118.633 93.352C116.676 116.325 113.405 120.025 108.431 120.025ZM112.226 108.769C115.104 108.769 116.674 99.3629 116.674 85.1756V72.8388C110.918 79.3164 110.002 83.1712 110.002 89.6465V105.066C110.002 107.843 110.918 108.769 112.226 108.769Z" fill="#F7F4F2" stroke="#363245" stroke-linejoin="bevel"/>
<path d="M162.762 51.4063L164.069 51.7143C166.816 28.275 170.873 24.4202 175.584 24.4202C180.032 24.4202 183.304 29.2014 183.304 36.911V118.483H174.145V42.9242C174.145 37.373 173.622 34.9066 171.658 34.9066C168.649 34.9066 165.902 45.855 165.902 59.8859V118.483H156.743V42.9242C156.743 37.373 156.221 34.9066 154.257 34.9066C151.248 34.9066 148.498 45.855 148.498 59.8859V118.483H139.34V25.9626H148.498V27.659L145.358 51.0983L146.666 51.4063C149.412 28.275 153.469 24.4202 158.18 24.4202C162.368 24.4202 165.506 28.583 164.592 36.295L162.762 51.4063Z" fill="#F7F4F2" stroke="#363245" stroke-linejoin="bevel"/>
</svg>
