<svg width="50" height="53" viewBox="0 0 50 53" fill="none" xmlns="http://www.w3.org/2000/svg">
<g clip-path="url(#clip0)">
<path d="M25.0111 14.5959C17.9129 14.5959 12.1874 19.9062 12.1874 26.4898C12.1874 33.0734 17.9129 38.3837 25.0111 38.3837C32.1093 38.3837 37.8347 33.0734 37.8347 26.4898C37.8347 19.9062 32.1093 14.5959 25.0111 14.5959ZM25.0111 34.2224C20.424 34.2224 16.674 30.7546 16.674 26.4898C16.674 22.225 20.4129 18.7572 25.0111 18.7572C29.6093 18.7572 33.3481 22.225 33.3481 26.4898C33.3481 30.7546 29.5981 34.2224 25.0111 34.2224ZM41.3504 14.1093C41.3504 15.6517 40.0111 16.8836 38.3593 16.8836C36.6963 16.8836 35.3682 15.6414 35.3682 14.1093C35.3682 12.5773 36.7075 11.3351 38.3593 11.3351C40.0111 11.3351 41.3504 12.5773 41.3504 14.1093ZM49.8437 16.925C49.6539 13.2087 48.7387 9.91695 45.8035 7.20484C42.8794 4.49273 39.3303 3.64391 35.3236 3.45758C31.1941 3.24019 18.8169 3.24019 14.6874 3.45758C10.6919 3.63355 7.1428 4.48238 4.20753 7.19449C1.27227 9.9066 0.368251 13.1984 0.167358 16.9146C-0.0670165 20.7447 -0.0670165 32.2246 0.167358 36.0546C0.35709 39.7709 1.27227 43.0627 4.20753 45.7748C7.1428 48.4869 10.6807 49.3357 14.6874 49.522C18.8169 49.7394 31.1941 49.7394 35.3236 49.522C39.3303 49.3461 42.8794 48.4972 45.8035 45.7748C48.7276 43.0627 49.6428 39.7709 49.8437 36.0546C50.078 32.2246 50.078 20.755 49.8437 16.925ZM44.5088 40.1642C43.6383 42.1931 41.953 43.7562 39.7544 44.574C36.462 45.7851 28.6495 45.5056 25.0111 45.5056C21.3727 45.5056 13.549 45.7748 10.2678 44.574C8.0803 43.7666 6.39503 42.2035 5.51334 40.1642C4.20753 37.1105 4.50887 29.8644 4.50887 26.4898C4.50887 23.1152 4.21869 15.8587 5.51334 12.8154C6.38387 10.7865 8.06914 9.2234 10.2678 8.40562C13.5602 7.19449 21.3727 7.47398 25.0111 7.47398C28.6495 7.47398 36.4731 7.20484 39.7544 8.40562C41.9419 9.21305 43.6271 10.7761 44.5088 12.8154C45.8146 15.8691 45.5133 23.1152 45.5133 26.4898C45.5133 29.8644 45.8146 37.1209 44.5088 40.1642Z" fill="#FF8062"/>
</g>
<defs>
<clipPath id="clip0">
<rect width="50" height="53" fill="white"/>
</clipPath>
</defs>
</svg>
