<svg width="46" height="50" viewBox="0 0 46 50" fill="none" xmlns="http://www.w3.org/2000/svg">
<path d="M41.2715 14.816C41.3007 15.2601 41.3007 15.7044 41.3007 16.1485C41.3007 29.6954 31.8147 45.3046 14.4772 45.3046C9.13576 45.3046 4.17387 43.623 0 40.7044C0.75891 40.7995 1.48853 40.8312 2.27664 40.8312C6.68393 40.8312 10.7411 39.2133 13.9809 36.4531C9.83627 36.3579 6.36291 33.4074 5.16619 29.3465C5.75 29.4416 6.33371 29.5051 6.94672 29.5051C7.79314 29.5051 8.63964 29.3781 9.42766 29.1561C5.10789 28.2043 1.86794 24.08 1.86794 19.099V18.9722C3.12297 19.7336 4.58248 20.2095 6.12932 20.2728C3.58998 18.4327 1.92634 15.2919 1.92634 11.7386C1.92634 9.83505 2.39326 8.09012 3.21057 6.56727C7.85144 12.7855 14.8274 16.8464 22.6496 17.2906C22.5037 16.5292 22.4161 15.7361 22.4161 14.943C22.4161 9.29569 26.6192 4.6955 31.8438 4.6955C34.5582 4.6955 37.01 5.9328 38.7321 7.93153C40.8627 7.48739 42.9059 6.63075 44.7156 5.45692C44.015 7.83641 42.5265 9.83514 40.5709 11.1041C42.4682 10.8821 44.307 10.3109 45.9998 9.51786C44.7158 11.5482 43.1104 13.3565 41.2715 14.816Z" fill="#FF8062"/>
</svg>
